<svg xmlns="http://www.w3.org/2000/svg" width="100%" height="100%">
  <defs>
    <!-- A simple leaf path definition that will be reused -->
    <symbol id="leaf" viewBox="0 0 24 24">
      <path d="M12 2C9 2 2 9 2 12s7 10 10 10 10-7 10-10S15 2 12 2zm-.25 3.25s.25 3.5-2 5.75-5.75 2-5.75 2 2.75 2.75 6.25 0 1.5-7.75 1.5-7.75z"/>
    </symbol>

    <pattern id="leavesPattern" width="200" height="200" patternUnits="userSpaceOnUse">
      <!-- Layer 1 larger leaves -->
      <use href="#leaf" x="20" y="30" width="60" height="60" fill="rgba(96,196,85,0.25)" />
      <use href="#leaf" x="120" y="100" width="70" height="70" fill="rgba(96,196,85,0.22)" />

      <!-- Layer 2 smaller leaves, rotated -->
      <use href="#leaf" x="80" y="20" width="40" height="40" fill="rgba(79,180,199,0.28)" transform="rotate(45 100 40)" />
      <use href="#leaf" x="40" y="120" width="45" height="45" fill="rgba(79,180,199,0.25)" transform="rotate(-35 62 142)" />

      <!-- Accent dots -->
      <circle cx="160" cy="40" r="4" fill="rgba(79,180,199,0.3)" />
      <circle cx="60" cy="160" r="3" fill="rgba(96,196,85,0.3)" />
    </pattern>
  </defs>

  <!-- Apply pattern to full canvas -->
  <rect width="100%" height="100%" fill="url(#leavesPattern)" />
</svg>
